<svg width="674" height="487" viewBox="0 0 674 487" fill="none" xmlns="http://www.w3.org/2000/svg">
<path d="M671.27 382.361H1.75725C1.2912 382.361 0.844261 382.144 0.514713 381.756C0.185164 381.368 0 380.843 0 380.294C0 379.746 0.185164 379.221 0.514713 378.833C0.844261 378.445 1.2912 378.228 1.75725 378.228H671.27C671.736 378.228 672.183 378.445 672.513 378.833C672.842 379.221 673.027 379.746 673.027 380.294C673.027 380.843 672.842 381.368 672.513 381.756C672.183 382.144 671.736 382.361 671.27 382.361Z" fill="#1D3557"/>
<path d="M349.797 111.608C376 111.608 397.243 86.6238 397.243 55.8041C397.243 24.9843 376 0 349.797 0C323.593 0 302.351 24.9843 302.351 55.8041C302.351 86.6238 323.593 111.608 349.797 111.608Z" fill="#1D3557"/>
<path d="M304.716 414.037L303.46 388.744L385.815 371L387.671 408.335L304.716 414.037Z" fill="#FFB8B8"/>
<path d="M308.706 370.252L311.13 419.036L285.015 420.832L281.064 341.332C284.493 341.096 287.929 341.657 291.174 342.983C294.419 344.308 297.411 346.373 299.977 349.059C302.544 351.744 304.636 354.998 306.134 358.634C307.631 362.271 308.505 366.218 308.706 370.252Z" fill="#1D3557"/>
<path d="M340.536 413.806L326.856 433.381L256.151 380.638L276.34 351.748L340.536 413.806Z" fill="#FFB8B8"/>
<path d="M312.33 442.766L338.712 405.014L358.921 424.552L315.928 486.073C313.274 483.508 311.076 480.352 309.459 476.787C307.842 473.222 306.837 469.318 306.503 465.296C306.169 461.275 306.512 457.216 307.511 453.35C308.511 449.484 310.148 445.888 312.33 442.766V442.766Z" fill="#1D3557"/>
<path d="M301.17 322.775L291.821 374.608C291.606 375.802 291.618 377.037 291.857 378.224C292.095 379.411 292.554 380.522 293.2 381.476C293.847 382.43 294.665 383.204 295.596 383.743C296.526 384.281 297.547 384.57 298.584 384.59L390.485 386.334C391.521 386.353 392.547 386.103 393.491 385.602C394.436 385.1 395.274 384.359 395.946 383.432C396.618 382.505 397.108 381.414 397.38 380.238C397.652 379.063 397.7 377.831 397.52 376.631L389.481 323.054C389.194 321.14 388.343 319.406 387.077 318.157C385.811 316.908 384.212 316.223 382.559 316.223H308.046C306.435 316.223 304.873 316.874 303.621 318.067C302.369 319.259 301.504 320.921 301.17 322.775V322.775Z" fill="#1D3557"/>
<path d="M316.41 341.025C316.41 341.025 226.79 274.887 209.217 310.023C200.431 327.591 204.824 344.642 211.414 357.301C217.529 368.828 226.307 378.069 236.723 383.945L309.381 425.765L335.739 392.696L318.167 374.094L316.41 341.025Z" fill="#1D3557"/>
<path d="M362.098 330.691C362.098 330.691 478.076 291.421 455.232 365.827C432.388 440.232 346.282 411.297 346.282 411.297L337.496 380.294L367.369 355.493L362.098 330.691Z" fill="#1D3557"/>
<path d="M343.5 135C365.868 135 384 112.167 384 84C384 55.8335 365.868 33 343.5 33C321.132 33 303 55.8335 303 84C303 112.167 321.132 135 343.5 135Z" fill="#FFB8B8"/>
<path d="M352.653 338.894C334.719 338.574 316.877 335.81 299.484 330.654L298.97 330.489L274.886 200.187C272.719 188.737 274.192 176.75 279.027 166.49C283.862 156.23 291.723 148.407 301.127 144.5C330.174 132.242 361.833 131.498 391.273 142.382H391.273C401.152 146.126 409.467 154.114 414.559 164.75C419.652 175.387 421.148 187.89 418.748 199.767L391.847 330.38L391.469 330.592C380.289 336.821 366.31 338.894 352.653 338.894Z" fill="#CCCCCC"/>
<path d="M320.302 349.016C321.177 346.157 322.574 343.558 324.394 341.403C326.215 339.248 328.416 337.588 330.841 336.541C333.266 335.494 335.857 335.086 338.431 335.344C341.005 335.602 343.499 336.521 345.739 338.036L393.161 289.622L397.451 327.669L351.761 367.811C349.348 372.067 345.691 375.134 341.484 376.431C337.277 377.728 332.811 377.165 328.934 374.848C325.056 372.531 322.035 368.622 320.444 363.861C318.854 359.1 318.803 353.818 320.302 349.016V349.016Z" fill="#FFB8B8"/>
<path d="M365.53 359.576C364.758 359.575 363.991 359.443 363.252 359.182C362.052 358.772 360.953 358.029 360.047 357.016C359.142 356.003 358.455 354.75 358.046 353.361L352.322 334.288C351.786 332.525 351.718 330.612 352.127 328.803C352.535 326.994 353.401 325.373 354.61 324.155L419.222 278.532L393.753 144.889L394.4 144.706C394.664 144.629 420.76 137.643 431.453 171.183C438.942 194.673 466.654 245.748 464.699 280.262C464.327 287.166 461.988 293.721 458.06 298.869C454.131 304.017 448.842 307.457 443.046 308.634L370.316 357.644C368.947 358.894 367.263 359.573 365.53 359.576Z" fill="#CCCCCC"/>
<path d="M372.776 344.483C371.902 341.624 370.505 339.025 368.684 336.87C366.863 334.714 364.663 333.055 362.237 332.008C359.812 330.961 357.221 330.553 354.647 330.811C352.073 331.069 349.579 331.988 347.34 333.503L299.917 285.089L295.627 323.136L341.318 363.278C343.731 367.534 347.387 370.601 351.594 371.898C355.802 373.195 360.267 372.631 364.145 370.315C368.023 367.998 371.043 364.089 372.634 359.328C374.225 354.567 374.275 349.285 372.776 344.483V344.483Z" fill="#FFB8B8"/>
<path d="M332.307 359.576C330.573 359.573 328.89 358.893 327.52 357.644L249.519 312.768C243.723 311.591 238.434 308.15 234.505 303.002C230.576 297.854 228.238 291.299 227.866 284.395C225.911 249.881 258.895 194.673 266.383 171.183C277.076 137.643 303.172 144.627 303.436 144.706L304.084 144.889L273.342 282.666L343.226 324.155C344.435 325.373 345.301 326.994 345.71 328.803C346.118 330.612 346.05 332.525 345.514 334.288L339.791 353.361C339.381 354.75 338.695 356.003 337.789 357.016C336.883 358.029 335.785 358.771 334.585 359.182C333.846 359.443 333.078 359.575 332.307 359.576V359.576Z" fill="#CCCCCC"/>
<path d="M425.359 380.294H268.963C265.702 380.29 262.576 378.764 260.27 376.052C257.964 373.34 256.666 369.662 256.663 365.827V264.553C256.666 260.717 257.964 257.04 260.27 254.327C262.576 251.615 265.702 250.089 268.963 250.085H425.359C428.62 250.089 431.747 251.615 434.053 254.327C436.359 257.04 437.656 260.717 437.66 264.553V365.827C437.656 369.662 436.359 373.34 434.052 376.052C431.746 378.764 428.62 380.29 425.359 380.294V380.294Z" fill="#457B9D"/>
<path d="M347.161 327.591C352.984 327.591 357.705 322.039 357.705 315.19C357.705 308.341 352.984 302.789 347.161 302.789C341.338 302.789 336.618 308.341 336.618 315.19C336.618 322.039 341.338 327.591 347.161 327.591Z" fill="white"/>
<path d="M306.799 66.4807C304.241 58.8494 308.438 49.7552 314.664 46.0585C320.89 42.3618 328.403 43.0649 335.063 45.5012C340.659 47.5487 345.905 50.7217 351.365 53.2279C356.748 56.0335 362.628 57.2652 368.503 56.8178C374.327 56.0441 380.123 52.203 382.507 45.905C384.977 39.3767 383.297 31.4101 379.493 25.8387C375.445 20.4525 370.207 16.4925 364.36 14.3992C351.519 9.07837 336.686 8.92282 324.765 16.6572C312.843 24.3917 304.742 40.8601 307.206 56.6089" fill="#1D3557"/>
</svg>
